<svg width="95" height="48" viewBox="0 0 95 48" fill="none" xmlns="http://www.w3.org/2000/svg">
<g clip-path="url(#clip0)">
<path d="M91.8447 20.9895C91.042 20.3055 90.0055 19.974 88.9629 20.0679C87.9204 20.1618 86.957 20.6733 86.2846 21.4902C85.2249 22.7805 83.8008 23.7074 82.2058 24.1447C80.6108 24.582 78.9223 24.5087 77.3697 23.9346C75.817 23.3605 74.4756 22.3135 73.5276 20.9359C72.5797 19.5583 72.0711 17.9169 72.0711 16.2347C72.0711 14.5525 72.5797 12.9111 73.5276 11.5335C74.4756 10.1559 75.817 9.10893 77.3697 8.53484C78.9223 7.96076 80.6108 7.8874 82.2058 8.32474C83.8008 8.76207 85.2249 9.6889 86.2846 10.9793C86.9576 11.7965 87.9218 12.3081 88.9651 12.4014C90.0084 12.4947 91.0454 12.1621 91.8479 11.4767C92.6504 10.7914 93.1527 9.80942 93.2443 8.7469C93.3359 7.68438 93.0093 6.62831 92.3363 5.81103C90.236 3.25516 87.4141 1.41968 84.2539 0.553946C81.0936 -0.31179 77.7483 -0.165816 74.6724 0.97204C71.5965 2.1099 68.939 4.18447 67.0611 6.91394C65.1832 9.6434 64.1758 12.8954 64.1758 16.2283C64.1758 19.5611 65.1832 22.8131 67.0611 25.5426C68.939 28.272 71.5965 30.3466 74.6724 31.4845C77.7483 32.6223 81.0936 32.7683 84.2539 31.9026C87.4141 31.0368 90.236 29.2014 92.3363 26.6455C93.0068 25.8287 93.3316 24.7744 93.2394 23.7139C93.1472 22.6535 92.6456 21.6736 91.8447 20.9895Z" fill="white"/>
<path d="M31.1613 3.42398C31.0342 2.60911 30.6528 1.8576 30.0735 1.28071C29.4943 0.703827 28.7481 0.332246 27.9453 0.220992C27.1425 0.109739 26.3259 0.264726 25.6164 0.663005C24.9069 1.06129 24.3421 1.68168 24.0058 2.43233L17.4911 17.0391L10.9763 2.43233C10.64 1.68168 10.0753 1.06129 9.36577 0.663005C8.65624 0.264726 7.83963 0.109739 7.03686 0.220992C6.23409 0.332246 5.48784 0.703827 4.90862 1.28071C4.32939 1.8576 3.94798 2.60911 3.82087 3.42398L0.0465004 27.8471C-0.0476335 28.3527 -0.0410594 28.8723 0.0658319 29.3752C0.172723 29.8781 0.377753 30.354 0.668745 30.7747C0.959737 31.1953 1.33076 31.5521 1.75978 31.8239C2.1888 32.0957 2.66707 32.2769 3.16619 32.3568C3.66531 32.4367 4.17511 32.4136 4.6653 32.2889C5.1555 32.1643 5.6161 31.9406 6.01976 31.6311C6.42341 31.3216 6.7619 30.9327 7.0151 30.4875C7.26831 30.0422 7.43108 29.5496 7.49375 29.0391L9.31433 17.2652L14.0719 27.8956L14.0941 27.9376C14.1259 28.0054 14.1607 28.0732 14.1956 28.1411C14.2305 28.2089 14.2432 28.2348 14.2686 28.2767C14.294 28.3187 14.3447 28.3963 14.3828 28.4544C14.4208 28.5125 14.443 28.5481 14.4779 28.5933C14.5128 28.6385 14.5572 28.6934 14.5984 28.7451C14.6397 28.7968 14.6746 28.842 14.7126 28.8872C14.7507 28.9325 14.7951 28.9745 14.8363 29.0164C14.8776 29.0584 14.9251 29.1101 14.9727 29.1521L15.1028 29.2619C15.1535 29.3072 15.2074 29.3491 15.2613 29.3911L15.3914 29.4816C15.4516 29.5236 15.5119 29.5656 15.5722 29.6011L15.699 29.6722C15.7656 29.7109 15.8354 29.7465 15.9052 29.7788L15.9464 29.8014L16.0448 29.8401L16.2478 29.9209L16.4127 29.9758L16.5966 30.0275L16.7806 30.0695L16.955 30.1018L17.1422 30.1244H17.323H17.6941H17.8622L18.062 30.0985L18.2269 30.0695L18.4204 30.0275L18.5917 29.979L18.7693 29.9209L18.9596 29.8434L19.0674 29.7981L19.1118 29.7755L19.3021 29.6754L19.4449 29.5946L19.6098 29.4848L19.7557 29.3847L19.8984 29.2684C19.946 29.2264 19.9967 29.1876 20.0412 29.1457C20.0856 29.1037 20.1236 29.0649 20.1649 29.0229C20.2061 28.9809 20.26 28.9292 20.3012 28.8808C20.3425 28.8323 20.371 28.7936 20.4091 28.7516C20.4471 28.7096 20.4947 28.645 20.5359 28.5901C20.5772 28.5352 20.5962 28.5029 20.6248 28.4576C20.6533 28.4124 20.704 28.3381 20.7421 28.2735C20.7802 28.2089 20.7897 28.1831 20.8151 28.1378C20.8404 28.0926 20.888 28.0022 20.9197 27.9343L20.9419 27.8924L25.6995 17.2619L27.5201 29.0358C27.5828 29.5464 27.7456 30.039 27.9988 30.4842C28.252 30.9295 28.5904 31.3184 28.9941 31.6279C29.3978 31.9373 29.8584 32.161 30.3486 32.2857C30.8388 32.4104 31.3486 32.4334 31.8477 32.3535C32.3468 32.2737 32.8251 32.0925 33.2541 31.8207C33.6831 31.5489 34.0541 31.1921 34.3451 30.7714C34.6361 30.3508 34.8411 29.8749 34.948 29.372C35.0549 28.8691 35.0615 28.3494 34.9674 27.8439L31.1613 3.42398Z" fill="white"/>
<path d="M62.3562 0.381169C61.8868 0.157565 61.3788 0.0303229 60.8611 0.00670976C60.3434 -0.0169034 59.8262 0.0635751 59.339 0.243549C58.8519 0.423522 58.4043 0.699465 58.0219 1.05562C57.6394 1.41177 57.3297 1.84116 57.1102 2.31926L49.4346 19.0482L41.759 2.31926C41.3144 1.35377 40.5114 0.607684 39.5267 0.245131C38.542 -0.117423 37.4562 -0.0667458 36.5081 0.386014C35.5601 0.838774 34.8275 1.65653 34.4715 2.65938C34.1155 3.66223 34.1653 4.76804 34.6099 5.73352L45.8156 30.1567C46.109 30.7944 46.5623 31.3421 47.1296 31.7447C47.697 32.1474 48.3586 32.3906 49.0476 32.4501H49.1206C49.2126 32.4501 49.3014 32.4695 49.3965 32.4695H49.4821C49.5741 32.4695 49.6661 32.4695 49.7549 32.4501H49.8279C50.5169 32.3906 51.1785 32.1474 51.7458 31.7447C52.3132 31.3421 52.7664 30.7944 53.0599 30.1567L64.2593 5.73352C64.4803 5.25498 64.6064 4.73671 64.6304 4.20842C64.6543 3.68014 64.5757 3.15224 64.3989 2.65499C64.2221 2.15773 63.9506 1.70091 63.6001 1.31072C63.2496 0.920531 62.8269 0.604642 62.3562 0.381169Z" fill="white"/>
<path d="M0.789121 47.6479C0.708846 47.5625 0.64705 47.4608 0.607716 47.3495C0.568383 47.2383 0.552385 47.1198 0.560755 47.0019V38.7618C0.552385 38.6438 0.568383 38.5254 0.607716 38.4141C0.64705 38.3028 0.708846 38.2012 0.789121 38.1157C0.874821 38.0371 0.975052 37.9765 1.08396 37.9377C1.19288 37.8989 1.30829 37.8826 1.42347 37.8896H6.43482C6.66092 37.8734 6.88543 37.9386 7.06917 38.0738C7.14301 38.1379 7.20142 38.2184 7.23991 38.3091C7.27841 38.3998 7.29595 38.4983 7.29119 38.597C7.29748 38.6992 7.28074 38.8016 7.24226 38.8962C7.20378 38.9908 7.14458 39.0752 7.06917 39.1429C6.8869 39.2817 6.66184 39.3493 6.43482 39.3335H2.31156V42.0791H5.27396C5.50006 42.0629 5.72457 42.1281 5.90831 42.2633C5.98437 42.329 6.04412 42.4122 6.0827 42.5059C6.12128 42.5997 6.1376 42.7013 6.13033 42.8027C6.13509 42.9014 6.11755 42.9999 6.07906 43.0906C6.04057 43.1813 5.98215 43.2619 5.90831 43.326C5.72518 43.4624 5.5002 43.5277 5.27396 43.5101H2.31156V46.4172H6.43482C6.66184 46.4015 6.8869 46.4691 7.06917 46.6078C7.14458 46.6755 7.20378 46.7599 7.24226 46.8546C7.28074 46.9492 7.29748 47.0515 7.29119 47.1537C7.29595 47.2524 7.27841 47.3509 7.23991 47.4416C7.20142 47.5323 7.14301 47.6129 7.06917 47.677C6.88604 47.8134 6.66106 47.8787 6.43482 47.8611H1.4203C1.19047 47.8781 0.963441 47.8014 0.789121 47.6479Z" fill="white"/>
<path d="M14.1876 47.6479C14.1073 47.5624 14.0455 47.4608 14.0062 47.3495C13.9668 47.2383 13.9508 47.1198 13.9592 47.0019V38.7618C13.9508 38.6438 13.9668 38.5254 14.0062 38.4141C14.0455 38.3028 14.1073 38.2012 14.1876 38.1158C14.2733 38.0371 14.3735 37.9765 14.4824 37.9377C14.5913 37.8989 14.7067 37.8826 14.8219 37.8896H17.5718C19.1746 37.8896 20.4179 38.3257 21.3018 39.1979C22.1856 40.07 22.6276 41.2974 22.6276 42.8802C22.6276 44.4651 22.1856 45.6937 21.3018 46.5658C20.4179 47.4379 19.1746 47.874 17.5718 47.874H14.8187C14.7041 47.8807 14.5893 47.8641 14.4809 47.8253C14.3726 47.7865 14.2729 47.7262 14.1876 47.6479ZM17.4608 46.3881C19.7106 46.3881 20.8355 45.2188 20.8355 42.8802C20.8355 40.5416 19.7106 39.3766 17.4608 39.3852H15.7512V46.3881H17.4608Z" fill="white"/>
<path d="M30.6638 47.7028C30.5816 47.6141 30.5176 47.5095 30.4757 47.3953C30.4337 47.281 30.4147 47.1593 30.4196 47.0374V38.7327C30.4122 38.6119 30.4301 38.491 30.4721 38.3778C30.5141 38.2646 30.5792 38.1619 30.6632 38.0763C30.7472 37.9908 30.8481 37.9244 30.9592 37.8817C31.0704 37.8389 31.1891 37.8207 31.3077 37.8282C31.4285 37.8219 31.5493 37.8407 31.6627 37.8835C31.7761 37.9263 31.8798 37.9921 31.9674 38.077C32.0484 38.1626 32.1117 38.2639 32.1536 38.3749C32.1956 38.4858 32.2153 38.6042 32.2116 38.723V47.0277C32.2166 47.1496 32.1975 47.2713 32.1556 47.3856C32.1136 47.4998 32.0497 47.6044 31.9674 47.6931C31.8807 47.7798 31.7774 47.8472 31.6638 47.8911C31.5503 47.9351 31.429 47.9545 31.3077 47.9483C31.1896 47.9547 31.0714 47.9362 30.9606 47.894C30.8498 47.8517 30.7488 47.7866 30.6638 47.7028Z" fill="white"/>
<path d="M43.6138 47.6964C43.5327 47.6108 43.4693 47.5095 43.4274 47.3986C43.3854 47.2876 43.3658 47.1692 43.3696 47.0503V39.3981H40.8322C40.2761 39.3981 39.998 39.1483 39.998 38.6487C39.998 38.1491 40.2761 37.8993 40.8322 37.8993H47.68C48.2361 37.8993 48.5142 38.1491 48.5142 38.6487C48.5142 39.1483 48.2361 39.3981 47.68 39.3981H45.1426V47.0374C45.1501 47.1582 45.1322 47.2791 45.0902 47.3923C45.0482 47.5055 44.983 47.6082 44.899 47.6938C44.815 47.7793 44.7141 47.8457 44.603 47.8884C44.4919 47.9312 44.3731 47.9494 44.2545 47.9419C44.1371 47.946 44.0201 47.9264 43.9101 47.8843C43.8002 47.8421 43.6995 47.7783 43.6138 47.6964Z" fill="white"/>
<path d="M57.0883 47.3798C56.3871 46.9623 55.824 46.3416 55.4707 45.5968C55.0973 44.7427 54.9043 43.8183 54.9043 42.8834C54.9043 41.9486 55.0973 41.0241 55.4707 40.1701C55.8228 39.4261 56.3863 38.8072 57.0883 38.3935C57.8545 37.9846 58.7067 37.771 59.5717 37.771C60.4368 37.771 61.289 37.9846 62.0552 38.3935C62.7543 38.8088 63.3154 39.4275 63.6664 40.1701C64.0399 41.0241 64.2328 41.9486 64.2328 42.8834C64.2328 43.8183 64.0399 44.7427 63.6664 45.5968C63.3131 46.3416 62.75 46.9623 62.0489 47.3798C61.2866 47.7886 60.438 48.0022 59.5765 48.0022C58.715 48.0022 57.8664 47.7886 57.1041 47.3798H57.0883ZM61.6746 45.5968C62.18 44.9658 62.4326 44.0603 62.4326 42.8802C62.4326 41.7001 62.18 40.7968 61.6746 40.1701C61.4055 39.873 61.0789 39.6358 60.7153 39.4736C60.3517 39.3114 59.9591 39.2277 59.5622 39.2277C59.1653 39.2277 58.7727 39.3114 58.4091 39.4736C58.0456 39.6358 57.7189 39.873 57.4498 40.1701C56.9445 40.7968 56.6918 41.7001 56.6918 42.8802C56.6918 44.0603 56.9445 44.9658 57.4498 45.5968C57.7174 45.8965 58.0435 46.1361 58.4073 46.3C58.771 46.4639 59.1644 46.5485 59.5622 46.5485C59.96 46.5485 60.3534 46.4639 60.7172 46.3C61.0809 46.1361 61.407 45.8965 61.6746 45.5968Z" fill="white"/>
<path d="M78.8563 47.2248C78.8576 47.3284 78.8351 47.4309 78.7905 47.524C78.7458 47.6171 78.6804 47.6983 78.5994 47.761C78.4285 47.9027 78.2139 47.9782 77.9936 47.9741C77.8415 47.9748 77.6917 47.9364 77.5581 47.8624C77.4245 47.7884 77.3113 47.6813 77.2292 47.551L75.38 44.6923C75.2379 44.4313 75.0354 44.2096 74.7901 44.0463C74.5399 43.9137 74.2599 43.8503 73.9781 43.8622H72.6111V47.0309C72.6177 47.1532 72.6003 47.2755 72.56 47.3909C72.5197 47.5062 72.4573 47.6122 72.3764 47.7028C72.2932 47.7865 72.1939 47.8518 72.0847 47.8946C71.9756 47.9374 71.8589 47.9568 71.7421 47.9515C71.6254 47.9554 71.5091 47.9354 71.4001 47.8927C71.2911 47.85 71.1917 47.7854 71.1077 47.7028C71.0244 47.6136 70.9597 47.508 70.9178 47.3925C70.8758 47.2769 70.8573 47.154 70.8635 47.0309V38.7618C70.8551 38.6438 70.8711 38.5254 70.9104 38.4141C70.9498 38.3028 71.0116 38.2012 71.0919 38.1158C71.1776 38.0371 71.2778 37.9765 71.3867 37.9377C71.4956 37.8989 71.611 37.8826 71.7262 37.8896H75.2151C76.3273 37.8896 77.1731 38.1416 77.7525 38.6455C78.0493 38.9202 78.2815 39.2594 78.432 39.6379C78.5824 40.0165 78.6472 40.4247 78.6216 40.8323C78.6519 41.5251 78.4254 42.2041 77.9872 42.7349C77.5065 43.2631 76.8609 43.6055 76.1603 43.7039C76.4192 43.7652 76.6611 43.8856 76.8676 44.056C77.1001 44.26 77.3011 44.4984 77.4639 44.7634L78.7326 46.7305C78.82 46.8796 78.863 47.0513 78.8563 47.2248ZM76.4172 42.0791C76.5813 41.9306 76.7093 41.7454 76.7913 41.5381C76.8733 41.3307 76.907 41.1068 76.8898 40.884C76.9088 40.661 76.8759 40.4365 76.7938 40.2289C76.7116 40.0212 76.5826 39.8362 76.4172 39.6888C75.9742 39.4033 75.4522 39.2719 74.9297 39.3141H72.6111V42.47H74.9455C75.465 42.5092 75.9826 42.3717 76.4172 42.0791Z" fill="white"/>
<path d="M95.0002 47.0794C95.0021 47.1852 94.9806 47.2901 94.9372 47.3863C94.8938 47.4825 94.8297 47.5675 94.7496 47.635C94.5896 47.7851 94.3804 47.8692 94.1629 47.8708C94.0074 47.8748 93.8544 47.8306 93.7241 47.7441C93.5938 47.6576 93.4924 47.5328 93.4333 47.3863L92.5738 45.5031L87.683 45.5709L86.8742 47.4767C86.8145 47.6314 86.7092 47.7634 86.5729 47.8546C86.4444 47.9363 86.2962 47.9799 86.1447 47.9806C85.9294 47.9825 85.7208 47.9044 85.5579 47.761C85.4741 47.6969 85.4059 47.6141 85.3586 47.5188C85.3113 47.4236 85.2861 47.3186 85.2852 47.2118C85.2849 47.0847 85.312 46.959 85.3645 46.8436L89.1039 38.4065C89.1796 38.223 89.3122 38.0699 89.4814 37.9704C89.6485 37.8732 89.8376 37.8221 90.0301 37.8221C90.2225 37.8221 90.4116 37.8732 90.5788 37.9704C90.7498 38.0659 90.8857 38.2156 90.9657 38.3968L94.9241 46.7338C94.9724 46.8425 94.9983 46.9601 95.0002 47.0794ZM88.2793 44.1432L91.9458 44.0915L90.0428 39.9149L88.2793 44.1432Z" fill="white"/>
</g>
<defs>
<clipPath id="clip0">
<rect width="95" height="48" fill="white"/>
</clipPath>
</defs>
</svg>
